<svg id="Layer_1" data-name="Layer 1" xmlns="http://www.w3.org/2000/svg" xmlns:xlink="http://www.w3.org/1999/xlink" viewBox="0 0 960 143"><title>header2</title><rect y="-0.1" width="960" height="120.25" style="fill:#009599;opacity:0.30000001192092896;isolation:isolate"/><rect y="120.25" width="960" height="22.65" style="fill:#009599;opacity:0.6000000238418579;isolation:isolate"/><rect y="23.4" width="960" height="96.5" style="fill:#009599"/><path d="M43.38-122A343.93,343.93,0,0,0,0-77.8V-75a354.76,354.76,0,0,1,46-47ZM63-122h-2.8Q29.29-97.25,0-59.4v2.9a20.28,20.28,0,0,0,1.3-1.8Q31.29-97,63-122Zm17.29,0h-2.9c-22,16.7-44.78,39.2-68,69.2C6.2-48.6,3.1-44.6,0-40.6v2.9C3.6-42.4,7.3-47,11-51.9,33.39-80.8,56.58-104.2,80.27-122ZM959.6-109.8v-1.8c-30.89,9.1-59.18,24.4-92.86,42.6-54,29.2-121.15,65.5-233.4,94.7C563-6.7,491.5-43.9,411.33-89.7l-2.9-1.6c-18.79-10.8-37.18-21.2-55.78-30.7H349c19.49,9.8,38.78,20.7,58.48,32l2.9,1.6C490-42.9,561-5.9,630.94,26.3c-1.3.3-2.4.7-3.7,1a19.47,19.47,0,0,0-2.3.6C553-4.7,481.8-42,400.83-89.6l-3.9-2.3c-17.79-10.2-35.69-20.5-54.08-30.1h-3.6c19.19,9.9,38.08,20.7,56.48,31.5l3.9,2.3C480.1-41,550.87-3.9,622.24,28.6l-6,1.5a10.08,10.08,0,0,1-1.5-.7C542.37-3,471-40.8,390.14-89.5l-5-2.9c-16.89-10-34.19-20.2-51.78-29.6h-3.6c18.49,9.8,36.58,20.4,54.28,30.9l5,2.9C469.9-39.5,541.27-1.7,613.64,30.6c-2,.5-4,1-5.9,1.5-1.4-.7-2.8-1.2-4.2-1.8-72.27-32-143.44-70.1-224-119.7l-6.2-3.8c-16.29-9.6-32.79-19.5-49.58-28.8h-3.5c17.69,9.7,35,20,52,30.2l6.2,3.7C459-38.3,530.28-.2,602.75,31.8c.8.3,1.7.7,2.4,1-2,.5-3.9,1-5.8,1.4-2.3-.9-4.6-1.9-7-2.9-72-31.5-143-69.8-223.41-120.6l-7.2-4.4c-15.69-9.5-31.49-19.1-47.68-28.3h-3.4c17,9.6,33.59,19.7,49.88,29.7l7.2,4.4C448.21-37,519.28,1.4,591.45,32.9l5.1,2.1c-2,.5-3.9.9-5.8,1.4-3.3-1.3-6.5-2.6-9.7-4C509.39,1.6,438.62-37.1,358.15-89.1l-8.4-5.2c-14.69-9.2-29.89-18.7-45.28-27.7h-3.4c16.19,9.4,32.19,19.3,47.78,29l8.3,5.2c80.47,52,151.44,90.7,223.11,121.6,2.6,1.1,5.2,2.1,7.8,3.2-1.9.4-3.8.9-5.7,1.4-4.2-1.6-8.4-3.2-12.59-5C498.59,3.2,427.92-35.7,347.46-88.9l-9.7-6.2c-14-8.9-28.29-18.1-43-26.9h-3.3c15.39,9.2,30.49,18.7,45.38,28.2l9.7,6.2C427.12-34.4,497.89,4.6,569.16,34.9c3.5,1.5,7.1,2.8,10.6,4.2-2,.4-3.7.8-5.7,1.3-5.1-2-10.3-3.9-15.39-6C488,4.8,417.63-34.3,337-88.8l-10.9-7C312.67-104.6,299-113.4,285-122h-3.2c14.69,9,29.09,18.3,43.18,27.4l10.9,7c80.67,54.5,151.24,93.7,222,123.4,4.4,1.8,8.9,3.5,13.39,5.2-1.9.4-3.7.9-5.5,1.3-6.1-2.3-12.19-4.5-18.29-6.9-70-28.9-140.24-68.3-221-124l-12.29-8.1c-12.79-8.5-25.79-17-39-25.3h-3.1C286-113.3,299.58-104.3,313-95.5l12.29,8.1C406.13-31.6,476.5,7.9,546.67,36.9c5.4,2.1,10.8,4.1,16.19,6.1-1.8.4-3.7.9-5.4,1.3-7.1-2.5-14.19-5.1-21.19-7.8C466.91,8.2,396.83-31.5,315.77-88.4L302-97.6c-12-8-24.19-16.2-36.68-24.2h-3q19.59,12.75,38.58,25.5l13.69,9.2C395.74-30,465.91,9.8,535.48,38.1c6.3,2.5,12.59,4.7,19,7-1.9.4-3.6.8-5.4,1.2-8.1-2.7-16-5.6-24-8.6C456.41,10.2,386.54-29.8,305.17-88.1L289.88-98.9c-11.3-7.6-22.69-15.4-34.29-23.1h-3c12.19,8.1,24.29,16.3,36.08,24.4L304-87.2c81.47,58.4,151.44,98.5,220.31,126,7.2,2.8,14.49,5.3,21.79,7.8-1.7.4-3.4.8-5,1.1-9.1-2.9-18.19-6-27.19-9.3-68-26.9-137.74-67.1-219.31-126.7-5.7-4-11.3-7.9-17-11.8-10.4-7.3-21-14.7-31.69-21.9h-3c11.4,7.7,22.59,15.5,33.49,23.1,5.7,4,11.4,8,17,11.9C375-27.3,444.91,13,513.09,39.9c8.2,3.1,16.39,5.9,24.69,8.6-1.6.3-3.1.7-4.8,1-10.2-3.1-20.39-6.4-30.39-10.1C435.32,13.3,365.85-27.3,283.88-88.2c-6.2-4.4-12.49-8.8-18.79-13.3-9.6-6.8-19.29-13.7-29.19-20.6H233c10.5,7.3,20.79,14.6,30.89,21.8,6.3,4.5,12.59,9,18.79,13.3C364.75-26,434.32,14.6,501.89,40.8c9.1,3.4,18.39,6.5,27.69,9.3-1.5.3-3.1.6-4.5.9-11.3-3.2-22.59-6.6-33.69-10.7C424.82,15,355.55-25.8,273.29-88c-6.9-4.9-13.79-9.9-20.79-14.9-8.7-6.3-17.49-12.7-26.39-19h-2.9c9.5,6.8,18.89,13.5,28.09,20.2,7,5.1,13.89,10.1,20.79,15C354.45-24.4,423.92,16.5,490.7,41.9c10.2,3.7,20.49,6.9,30.89,9.9l-4.3.9c-12.49-3.2-24.89-6.9-37.08-11.2C413.53,16.6,346.36-23.3,262.69-87.7c-7.7-5.6-15.39-11.3-23.19-17-7.6-5.9-15.49-11.6-23.29-17.3h-2.9c8.4,6.1,16.79,12.3,25,18.3,7.8,5.8,15.49,11.4,23.19,17,83.87,64.5,151,104.5,218,129.5,11.2,4,22.49,7.3,34,10.4-1.5.3-2.8.5-4.3.8-13.69-3.3-27-7-40.18-11.6C403,18.2,336.16-21.9,252.09-87.7c-8.4-6.3-17-12.7-25.59-19.2-6.6-5-13.39-10-20.19-15.1h-2.8c7.3,5.4,14.59,10.9,21.79,16.3,8.6,6.5,17.09,12.9,25.59,19.2C335.06-20.7,402.13,19.5,468.3,43.9c12.19,4.2,24.49,7.7,37.08,10.9-1.4.2-2.8.5-4.2.7a378.58,378.58,0,0,1-43.38-12.1C392.64,19.9,325.86-20.4,241.5-87.5c-9.4-7.1-18.89-14.4-28.49-21.8-5.4-4.1-11-8.4-16.49-12.6h-2.8c6.1,4.6,12.09,9.2,18.09,13.8,9.6,7.4,19.09,14.7,28.49,21.8C324.86-19,391.74,21.5,457.21,45a386.21,386.21,0,0,0,40.08,11.3l-4.1.6a374.63,374.63,0,0,1-46.48-12.4C382.34,21.8,315.77-18.9,231-87.3c-10.4-8-21-16.3-31.69-24.7-4.1-3.2-8.3-6.5-12.49-9.8H184c4.7,3.6,9.4,7.3,14,10.9,10.8,8.4,21.29,16.7,31.69,24.7C314.67-17.6,381.34,23.1,446,45.9A359.5,359.5,0,0,0,488.7,57.5c-1.1.2-2.3.3-3.4.5a375.49,375.49,0,0,1-49.88-12.6c-63.57-22-129.95-62.9-215.11-132.7-11.7-9.2-23.59-18.8-35.79-28.5-2.5-2-5.1-4.1-7.7-6.2h-2.9c3.1,2.4,6.1,4.9,9.2,7.3q18.29,14.7,35.79,28.5c85.36,69.9,151.84,110.9,215.71,133A384.47,384.47,0,0,0,480.4,58.6l-2.8.3A350.45,350.45,0,0,1,424,46.3C361.25,25.1,295.08-16.1,209.51-87.3c-13.29-10.6-26.79-21.7-40.68-33.1-.7-.6-1.4-1.2-2.1-1.7H164c1.1.9,2.3,1.9,3.5,2.9,13.89,11.4,27.49,22.5,40.68,33.1C294-14.8,360.35,26.5,423.32,47.8A351.3,351.3,0,0,0,471.9,59.7a13.54,13.54,0,0,1-2,.2,343.73,343.73,0,0,1-57.08-12.6c-62-20.4-127.95-61.9-213.91-134.5-13.59-11-27.59-22.7-42-34.8h-2.7c14.89,12.5,29.39,24.6,43.48,36C283.88-13.3,350.05,28.2,412.33,48.8a349.24,349.24,0,0,0,51.48,11.9,4.87,4.87,0,0,1-1.2.1,316.85,316.85,0,0,1-60.77-12.6C340.66,28.6,274.79-13.2,188.52-87c-13.59-11-27.39-22.9-41.58-35h-2.6C159-109.5,173.23-97.3,187-85.8c86.56,74,152.54,115.9,214,135.7a327.29,327.29,0,0,0,53.88,11.7c-.1.1-.2.1-.4.1a309,309,0,0,1-64.07-12.3c-60.37-19-126-60.9-212.71-136.2-13.09-11.1-26.79-23-40.68-35.2h-2.6c14.39,12.6,28.49,24.8,42,36.3,87,75.4,152.74,117.5,213.41,136.5a312.39,312.39,0,0,0,52.88,11.1,302.68,302.68,0,0,1-63.47-11.6c-59.58-18.2-124.95-60.4-212.11-137-12.89-11.1-26.29-23-40.08-35.3h-2.6c14.19,12.7,28.09,25,41.28,36.4,87.36,76.8,153,119.1,212.91,137.4a294.46,294.46,0,0,0,53.18,10.5A297.48,297.48,0,0,1,368,51.3C308.47,33.7,245.2-7.6,156.53-86.6c-12.89-11.3-26.19-23.3-39.48-35.4H113c-1.1.8-2.3,1.5-3.4,2.4-.8-.8-1.7-1.6-2.5-2.4h-2.5c1.2,1.1,2.4,2.3,3.6,3.4-1.4,1-2.8,2-4.3,3.1-2.1-2-4.3-4.1-6.4-6.2.1-.1.3-.2.4-.3h-3.2a.1.1,0,0,0,.1.1c-24.29,17.5-49.68,42-75.67,75.5C12.59-38,6.3-29.8,0-21.8v2.9c6.8-8.6,13.59-17.4,20.59-26.5C46.48-78.9,71.87-103.3,96-120.7c2.1,2,4.4,4.2,6.4,6.2C78.77-96.8,54-72.6,28.69-40Q14-21,0-3.2V-.3Q14.69-19,30.29-39.1c25.19-32.5,49.88-56.5,73.47-74.2C212.81-10.1,281.18,37,345.06,54.8a278.26,278.26,0,0,0,75.77,10c4.3,0,8.6-.1,13-.3,1.2,0,2.2.2,3.4.2,3.1,0,6.5-.3,9.7-.4,2.2.1,4.3.2,6.5.2,3.2,0,6.7-.2,10-.3,2.3.1,4.4.2,6.7.2s4.7-.1,7-.1c4.6.1,9.2.2,13.89.1,4.7.2,9.5.2,14.29.2h.3c3.1.1,6.3.1,9.5.2h1.2c4.6.3,9.3.3,13.89.4,7.8.6,15.59,1,23.49,1.3,4.6.3,9.2.8,13.79,1,6.1.6,12.09,1,18.19,1.4,5.8.6,11.5,1.1,17.29,1.5,5.1.5,10.2,1,15.19,1.4,5.1.7,10.2,1.2,15.29,1.7,6.7.9,13.39,1.8,20,2.4,5.8.8,11.5,1.6,17.19,2.3,4.9.8,9.8,1.5,14.59,2.1,5.5.9,11,1.8,16.49,2.6,7.3,1.3,14.49,2.5,21.59,3.5,5.3,1,10.6,1.9,15.79,2.7,4.6.9,9,1.8,13.49,2.5,6.8,1.5,13.39,2.9,19.79,4,5.4,1.2,10.8,2.3,16,3.4,6,1.4,11.8,2.7,17.49,3.8,5.9,1.5,11.6,2.8,17.39,4,5.1,1.4,10.2,2.7,15.09,3.8,6.7,1.9,13.09,3.5,19.39,5,38.48,10.9,71.67,15.4,101.86,10.6v-1.6c-22.39,3.7-46.38,2.1-73.17-3.5,27.49,4.3,51.48,3.8,73.17-1.5V118c-21.89,5.5-46,6-74,1.5-5.9-.9-11.9-2-18.09-3.3,2.5.4,5,.9,7.5,1.2,32.49,4.8,59.88,3.1,84.56-5.2v-1.7c-24.59,8.3-51.88,10-84.26,5.3-7.1-.9-14.29-2.1-21.69-3.6,3.7.5,7.4,1.1,11.1,1.4,37,4.8,67.57,1.6,95-9.8V102c-27.29,11.6-57.58,14.9-94.66,10.1-8.2-.8-16.39-2.1-24.79-3.5,4.8.5,9.5,1,14.29,1.4,41.68,4.7,75-.2,105-15.2.1-.1.1-.1.2-.1V93a5.36,5.36,0,0,1-1.1.5c-29.59,14.9-62.67,19.7-103.86,15.1-7.7-.6-15.49-1.5-23.49-2.6a13.34,13.34,0,0,1-1.8-.7q7.5.75,14.69,1.2c41.58,4,75-1.1,105-16,3.6-1.6,7.1-3.5,10.6-5.3V83.3c-3.8,2-7.6,4-11.5,5.8-29.59,14.7-62.57,19.8-103.86,15.8-7.1-.4-14.39-1-21.79-1.9-1-.3-1.9-.7-2.9-1,4.8.4,9.5.7,14.19.8,41.58,3.2,75-2.1,104.86-16.8,7.2-3.4,14.19-7,21-11V73.1a238.56,238.56,0,0,1-21.89,11.4C908.12,99.2,875.14,104.4,834,101.1c-6.6-.3-13.29-.7-20.19-1.3-1.2-.4-2.5-.9-3.7-1.3,4.5.2,9,.4,13.49.5,41.48,2.6,74.77-3,104.86-17.6A268.52,268.52,0,0,0,959.7,64.5v-2A263.66,263.66,0,0,1,927.41,80c-29.69,14.5-62.67,20-103.86,17.4-6.1-.1-12.19-.4-18.49-.8-1.5-.5-3-1-4.4-1.6,3.7.1,7.5.2,11.2.2h1.4C854.64,97.1,888,91.3,918,76.9a309.38,309.38,0,0,0,41.68-23v-2a296.38,296.38,0,0,1-42.58,23.6c-29.79,14.3-62.77,20.1-103.86,18.1-5.7,0-11.5-.1-17.19-.3-1.5-.5-3.1-1.2-4.6-1.8,3.8,0,7.6.1,11.4,0,41.38,1.2,74.67-4.9,104.66-19.1A323,323,0,0,0,959.6,43.2v-2a322.75,322.75,0,0,1-53,29.8c-29.79,14.1-62.67,20.2-103.76,19-5.1.1-10.4.1-15.59,0-1.7-.6-3.3-1.3-5-1.9,3.4-.1,6.9-.1,10.3-.2,41.38.5,74.57-5.8,104.66-19.9A345.5,345.5,0,0,0,959.7,32.5v-2a351.33,351.33,0,0,1-63.27,36.1c-29.79,14-62.57,20.3-103.86,19.7-4.7.2-9.5.2-14.19.3-1.8-.7-3.5-1.4-5.3-2,3-.2,6.1-.2,9.2-.4,41.18-.1,74.47-6.7,104.56-20.7A371.58,371.58,0,0,0,959.6,21.7V19.6a378.27,378.27,0,0,1-73.67,42.5C856,75.9,823.16,82.4,782.17,82.6c-4.3.2-8.5.3-12.79.5-1.8-.8-3.6-1.4-5.4-2.2,2.7-.1,5.4-.2,8-.4,41.18-.9,74.37-7.7,104.56-21.5,31.89-13.6,58.88-30.2,83.17-48.2V8.7C935.11,27,908,43.9,875.64,57.7,845.75,71.4,812.86,78.1,771.88,79c-3.8.3-7.7.4-11.5.6-1.9-.8-3.7-1.5-5.7-2.3,2.4-.2,4.6-.3,7-.5,41.08-1.5,74.27-8.6,104.46-22.3C902.82,39.1,932.71,20.2,959.7,0V-2.1c-27.19,20.4-57.28,39.6-94.36,55.2-29.89,13.6-62.87,20.5-103.66,22-3.4.3-6.8.5-10.2.7-1.9-.7-3.9-1.5-5.8-2.3,2-.2,3.9-.3,5.8-.5,41-2.2,74.17-9.5,104.36-23,41.58-17.3,74.37-38.5,103.86-60.7v-2.1C930,9.6,896.93,31,854.94,48.5,825,62,792,69.2,751.19,71.4c-3,.3-5.9.5-8.9.8-2-.8-4-1.5-6-2.4,1.6-.2,3.2-.3,4.8-.5,40.28-2.9,74.37-10.7,104.26-23.8C892.13,26.3,927.51,2.9,959.6-21.2V-23c-32.29,24.3-68,48-115.05,67.4C814.86,57.5,781,65.2,740.89,68c-2.6.3-5.2.5-7.8.8a11.1,11.1,0,0,1-1.6-.7c-1.5-.6-3-1.2-4.4-1.8,1.2-.2,2.4-.3,3.7-.5C771,62.3,805.06,54.3,835.05,41.3,887,20.1,924.91-5.5,959.7-31.2v-2.1c-35,25.9-73.07,51.8-125.45,73.1C804.46,52.7,770.58,60.7,730.6,64.2c-2.2.3-4.3.5-6.5.8-2-.9-4.1-1.7-6.2-2.6l2.7-.3c40.08-4.1,74.17-12.4,104.16-25.3,57.38-23.1,97.46-50.7,135-77.9v-2.1C921.92-15.8,881.73,12.1,824,35.4,794.07,48.2,760.18,56.5,720.4,60.6c-1.8.3-3.6.5-5.4.7-2.1-.8-4.2-1.7-6.3-2.6.5-.1,1-.1,1.6-.2,39.88-4.8,74-13.4,104.16-26.1,62.07-24.8,105.66-55.3,144-82.1a6.71,6.71,0,0,1,1.4-.9v-2.1c-.9.6-1.7,1.2-2.5,1.8C919-24.1,875.64,6.4,813.76,31.1c-30,12.7-63.87,21.2-103.66,25.9-1.4.3-2.7.4-4.1.6-2.1-.9-4.2-1.8-6.3-2.6a.6.6,0,0,1,.4-.1c39.78-5.4,73.77-14.3,104.06-26.9,61.67-24.4,105-53.6,143.24-79.4,4.2-2.9,8.4-5.7,12.59-8.5v-2c-4.6,3-9.1,6-13.69,9.2C908.22-27,864.94,2.2,803.47,26.5c-30.19,12.6-64,21.4-103.66,26.8-1,.2-1.9.3-2.8.5-2.1-.9-4.3-1.8-6.4-2.7,39.28-6.1,73-15.1,103.26-27.5C855.14-.5,898.23-28.5,936.21-53.3c8.1-5.3,16-10.4,23.79-15.3v-2c-8.2,5.2-16.49,10.5-24.89,16C896.83-30,853.84-2.1,792.67,22,762.38,34.5,728.5,43.5,689.11,49.5l-1.7.3c-2.1-.9-4.2-1.8-6.4-2.7C719.5,40.5,753,31.3,783.07,19,843.95-4.7,886.73-31.7,924.51-55.5,936.61-63.1,948.1-70.3,959.6-77v-2c-11.9,6.9-23.69,14.3-36.18,22.1C885.73-33.2,842.95-6.2,782.27,17.4,751.79,29.8,717.9,39.1,678.72,45.7c-.1,0-.2.1-.3.1-2.2-.9-4.3-1.9-6.5-2.8,37.68-7.3,70.77-16.6,100.76-28.6,60.37-23.4,103-49.3,140.54-72.3,16-9.7,31.19-18.8,46.38-27v-1.9C944-78.4,928.61-69,912.22-59c-37.48,22.9-80.07,48.7-140.14,72C741.59,25.2,708,34.6,669.52,42c-2.2-1-4.4-2-6.5-2.9,36.88-7.7,69.47-17.3,99.46-29.1C822.26-13,864.64-38,902-60.1,922.42-72.1,940.91-83,959.7-92v-1.9c-19.09,9.2-38,20.3-58.68,32.5-37.28,22.1-79.67,47-139.24,69.9C731.3,20.5,698.21,30.1,660.52,38c-2.2-1-4.4-2-6.7-3,36-8.2,68.27-17.9,98.36-29.5,59.18-22.6,101.36-46.7,138.54-68,24.39-14,46.28-26.5,69-36.1v-1.7c-23.09,9.7-45.28,22.3-70.07,36.5C852.54-42.5,810.46-18.4,751.39,4.1c-30.49,11.8-63.27,21.6-100,29.8l-6.6-3c35-8.6,66.87-18.3,97-29.8C800.37-21,842.35-44.4,879.33-65c29-16.2,54.08-30,80.27-39.5v-1.7C932.41-96.5,907-82.4,878.13-66.4c-37,20.5-78.77,43.8-137.24,66C710.3,11.3,678,21.1,642.33,29.8c-2.2-1-4.4-2-6.7-3.1C747.09-2.5,814-38.6,867.74-67.8,901-85.7,929.11-100.7,959.6-109.8ZM345.66,53.3c-63.57-17.7-131.75-64.7-240.6-167.7l4.3-3.1c12.69,11.8,24.29,22.4,35.19,32.1C233.9-4.8,297.28,36.8,356.25,53.8a277.6,277.6,0,0,0,46.58,8.8A265.63,265.63,0,0,1,345.66,53.3Zm11.2-1C298.18,35.4,235.1-6.1,145.94-86.4c-10.9-9.7-22.39-20.3-35.09-32,1.4-1,2.9-2,4.3-3,13.49,12.4,27,24.5,40.08,36C244.2-6.2,307.67,35.1,367.55,52.8A301.39,301.39,0,0,0,416,62.4,285.94,285.94,0,0,1,356.85,52.3ZM478.6,61c-.7-.1-1.4-.1-2.1-.2.4-.1.9-.1,1.3-.2l2,.3A5.74,5.74,0,0,1,478.6,61Zm7.6-.7a25.33,25.33,0,0,0-2.9-.4l2-.3c1,.2,2,.3,3,.5A13.6,13.6,0,0,0,486.2,60.3Zm8.5.9c-.5-.1-1-.1-1.5-.2l.8-.1c.4.1.9.1,1.3.2A1.27,1.27,0,0,1,494.69,61.2Zm-.6-1.8-3.7-.6c.9-.1,1.7-.2,2.7-.4,1.2.2,2.4.5,3.6.8A21.1,21.1,0,0,0,494.09,59.4Zm319.17,42.1c.4.2.9.3,1.4.5l-.6-.1a8.32,8.32,0,0,0-1.5-.4A.85.85,0,0,1,813.26,101.5Zm-8.7-3.2c1,.4,1.8.7,2.7,1l-1.8-.3c-1-.3-1.9-.6-2.9-.9a15,15,0,0,0,2,.2Zm-6.9-.1c-.6-.2-1.3-.4-1.9-.6h.2A10.71,10.71,0,0,1,797.67,98.2Zm-2-3.2c1.1.4,2.2.8,3.2,1.2a17.9,17.9,0,0,0-2.4-.2c-1-.3-2-.7-3.1-1Zm-171-65.3c.1.1.3.1.4.2,2.1.9,4.2,1.8,6.2,2.7-2,.5-4.1,1-6,1.5-2.2-1-4.4-1.9-6.6-2.9Q621.64,30.3,624.64,29.7ZM735.29,77c-1.7-.6-3.5-1.3-5.2-1.9,1.3-.1,2.6-.2,3.9-.4,1.9.8,3.7,1.4,5.5,2.1C738,76.9,736.69,76.9,735.29,77Zm7.8,1.3c1.7.6,3.5,1.3,5.1,1.9-1.3,0-2.6,0-3.9.1-1.7-.6-3.3-1.2-5-1.8,1.3-.1,2.5-.2,3.8-.2ZM726.3,73.7c-1.8-.7-3.7-1.4-5.6-2.1,1.4-.1,2.7-.3,4.1-.4,1.9.8,3.8,1.5,5.8,2.3C729.2,73.6,727.8,73.6,726.3,73.7ZM537.48,54.4c1.5-.3,2.9-.6,4.4-.8,1.7.5,3.3,1,5,1.4-1.4.2-2.8.4-4.3.7C540.87,55.3,539.18,54.9,537.48,54.4Zm.9,1.9c-1.2.2-2.4.4-3.6.5-1.7-.4-3.5-.7-5.2-1,1.4-.2,2.8-.5,4.2-.7,1.6.4,3.1.9,4.6,1.2Zm7.1-3.3c1.5-.3,3.1-.6,4.5-.9l5.3,1.5c-1.5.3-3.1.6-4.7.8C548.87,54,547.17,53.4,545.47,53ZM699.91,67.6a4.88,4.88,0,0,1-.7-.3c-1.7-.5-3.4-1.2-5.1-1.8,1.4-.2,2.8-.4,4.2-.5,2,.8,4,1.5,6,2.2C702.81,67.4,701.31,67.5,699.91,67.6Zm7.9,1c.5.2,1,.3,1.5.5,1.4.5,2.7,1,4.1,1.5-1.4.2-2.8.2-4.3.3-1.9-.7-3.7-1.3-5.6-2Zm-17.29-4.3c-2.1-.7-4.1-1.4-6.2-2.2,1.4-.2,3-.4,4.5-.6,2.1.8,4.2,1.5,6.3,2.4-1.6.2-3.1.3-4.6.4Zm-36.58-8.8c-2.1-.8-4.2-1.5-6.3-2.3,1.7-.3,3.4-.6,5.2-.9,2.1.8,4.2,1.5,6.3,2.4-1.8.2-3.5.5-5.2.8Zm8.1.3c2,.8,4.1,1.5,6.1,2.3-1.7.3-3.4.5-5,.7-2-.7-4-1.4-6.1-2.1,1.7-.4,3.4-.6,5-.9Zm-57.88-4.7c1.7-.3,3.4-.6,5.1-1,2,.7,3.9,1.4,5.9,2.1-1.7.3-3.3.6-4.9.8C608.25,52.5,606.15,51.8,604.15,51.1Zm2.5,2.6c-1.6.2-3.1.4-4.7.7l-6.1-1.8c1.7-.3,3.4-.6,5-.9C602.85,52.4,604.75,53.1,606.65,53.7Zm20.29-3.4c-2-.8-4.1-1.5-6.1-2.3,1.7-.4,3.6-.7,5.3-1.1l6.3,2.4C630.54,49.6,628.64,49.9,626.94,50.3Zm8.2,0c2,.8,4.1,1.6,6.1,2.3-1.7.3-3.4.6-5,.8-2.1-.7-4.3-1.4-6.4-2.1C631.54,51,633.34,50.6,635.14,50.3Zm-11.4.5c-1.7.3-3.5.7-5.3.9-2-.7-4.1-1.4-6.1-2.1,1.7-.3,3.5-.7,5.3-1C619.74,49.3,621.74,50,623.74,50.8Zm-5.4,2.6c2,.7,4.1,1.3,6.1,2-1.6.2-3.1.4-4.8.7-2-.7-4.1-1.3-6.1-1.9,1.6-.4,3.2-.5,4.8-.8Zm3.4-.6,4.9-.9c2.1.7,4.1,1.4,6.2,2.1-1.6.3-3.2.6-4.8.8C625.94,54.1,623.84,53.4,621.74,52.8Zm14.39,2.3c2,.7,4.1,1.4,6.1,2.1l-4.8.6c-2-.6-4-1.3-6.1-1.9C632.94,55.6,634.44,55.4,636.13,55.1Zm3.3-.5,4.9-.9c2,.8,4.1,1.5,6.1,2.3-1.6.2-3.3.5-4.9.7C643.63,56,641.53,55.3,639.43,54.6Zm5.1-2.5c-2.1-.8-4.3-1.5-6.4-2.3,1.8-.3,3.6-.7,5.4-1,2.1.8,4.1,1.6,6.2,2.4C648,51.5,646.33,51.8,644.53,52.1Zm-9.2-3.4c-2.1-.8-4.2-1.6-6.3-2.5,1.8-.3,3.7-.8,5.5-1.2,2.1.9,4.2,1.8,6.3,2.6-1.8.4-3.6.7-5.5,1.1Zm-9-3.5c-2.2-.8-4.3-1.6-6.5-2.5,1.8-.4,3.7-.8,5.6-1.2,2.1.9,4.3,1.7,6.5,2.6-2,.3-3.8.7-5.6,1.1Zm-3,.6c-1.8.4-3.7.8-5.4,1.2-2.1-.8-4.3-1.6-6.4-2.4l5.4-1.2c2.1.8,4.3,1.6,6.4,2.4Zm-8.5,1.7c-1.8.4-3.6.7-5.4,1-2.1-.7-4.2-1.5-6.3-2.3,1.8-.4,3.5-.8,5.4-1.2,2.1.9,4.2,1.7,6.3,2.5Zm-8.5,1.6c-1.8.3-3.5.7-5.3.9-2-.7-4.1-1.4-6.1-2.1,1.7-.4,3.5-.7,5.2-1,2.1.7,4.1,1.4,6.2,2.2Zm-8.5,1.5c-1.7.3-3.4.7-5.1.9-2-.7-4-1.3-6-2,1.7-.3,3.4-.7,5.1-1q3,1.2,6,2.1Zm-8.5,1.6c-1.7.3-3.3.5-5,.8-1.9-.6-3.8-1.3-5.8-1.9l5-.9c2,.7,3.9,1.3,5.8,2Zm-8.5,1.4c-1.6.2-3.1.4-4.7.7-1.9-.5-3.8-1.1-5.8-1.6l4.8-.9q3,.9,5.7,1.8Zm3.4,1.1q2.7.75,5.7,1.5l-4.2.6c-1.9-.5-3.8-.9-5.6-1.5ZM588,54c1.5-.3,3.1-.5,4.6-.8l5.7,1.8c-1.5.2-3,.5-4.4.7-1.9-.6-3.9-1.1-5.9-1.7Zm13.89,2.1c1.9.5,3.8,1.1,5.8,1.6-1.5.2-2.9.4-4.4.5-1.9-.5-3.7-1-5.6-1.6,1.4-.1,2.8-.4,4.2-.5Zm3.7-.6c1.4-.3,3-.5,4.4-.8,2,.7,4,1.2,5.9,1.9l-4.5.6c-1.9-.6-3.9-1.1-5.8-1.7Zm14,2.2c1.9.6,3.7,1.2,5.6,1.7-1.4.2-2.8.4-4.2.5-1.9-.5-3.7-1-5.6-1.6Zm3.7-.6c1.5-.2,3-.4,4.5-.7,2,.6,3.9,1.3,5.9,1.9-1.6.2-3.1.3-4.6.6-2-.5-3.9-1.2-5.8-1.8Zm13.89,2.4c1.9.5,3.7,1.2,5.5,1.7-1.3.2-2.6.3-3.9.4-1.9-.6-3.9-1-5.8-1.6,1.5-.1,2.9-.3,4.2-.5Zm3.7-.5,4.7-.6c1.9.6,3.8,1.3,5.8,1.9-1.5.2-2.9.3-4.4.5-2-.6-4-1.1-6.1-1.8Zm8.2-1.2c1.6-.2,3.2-.5,4.8-.7,2,.7,3.9,1.4,5.9,2.1-1.5.2-3.1.4-4.6.7-2.1-.7-4.1-1.3-6.1-2.1Zm14,2.6c2,.7,4,1.3,6,2l-4.1.6c-2.1-.7-4.2-1.3-6.2-1.9,1.4-.3,2.9-.5,4.3-.7Zm3.7-.5c1.5-.2,3.1-.4,4.7-.7,2,.7,4,1.4,6,2.2-1.5.2-3,.3-4.5.5-2.2-.6-4.2-1.3-6.2-2Zm14.09,2.8c2,.7,3.9,1.4,5.9,2-1.4.2-2.8.3-4.3.4-2-.6-4-1.3-6-2,1.5-.1,2.9-.2,4.4-.4ZM681,61c-2.1-.8-4.3-1.5-6.4-2.3,1.7-.2,3.4-.5,5.1-.7,2,.8,4.1,1.6,6.1,2.4Zm-9.5-3.4c-2.1-.8-4.1-1.5-6.2-2.4,1.7-.3,3.4-.5,5.2-.8,2,.8,4.1,1.6,6.2,2.4-1.8.3-3.5.5-5.2.8Zm-9.2-3.4c-2.1-.8-4.3-1.6-6.4-2.4,1.7-.3,3.4-.7,5.2-1,2.1.9,4.3,1.7,6.4,2.6-1.7.2-3.5.5-5.2.8ZM653,50.7c-2.1-.8-4.3-1.7-6.4-2.5a54,54,0,0,0,5.5-1.2c2.1.9,4.2,1.8,6.3,2.6-1.8.4-3.7.8-5.4,1.1Zm-9.2-3.6c-2.1-.8-4.3-1.7-6.4-2.5l5.6-1.2c2.1.9,4.3,1.8,6.4,2.6-1.8.4-3.7.7-5.6,1.1Zm-9.1-3.7c-2.2-.9-4.4-1.7-6.5-2.6,2-.4,3.8-.9,5.8-1.3,2.1.9,4.3,1.8,6.5,2.7C638.53,42.7,636.63,43.1,634.74,43.4Zm-9.1-3.6c-2.1-.9-4.3-1.8-6.4-2.7,1.9-.5,3.9-.9,5.8-1.4,2.1.9,4.3,1.8,6.5,2.7C629.54,38.9,627.64,39.3,625.64,39.8Zm-2.7.6c-2,.4-3.9.9-5.8,1.3-2.1-.8-4.2-1.7-6.3-2.6,1.9-.4,3.8-.9,5.8-1.4C618.64,38.6,620.84,39.5,622.94,40.4Zm-8.7,1.9-5.6,1.2c-2.1-.8-4.2-1.6-6.4-2.5,1.9-.4,3.8-.8,5.7-1.3C610.15,40.5,612.14,41.4,614.24,42.3Zm-8.5,1.8c-1.8.3-3.6.7-5.4,1.1-2.1-.8-4.3-1.5-6.4-2.3,1.9-.4,3.7-.8,5.6-1.3C601.55,42.5,603.65,43.3,605.75,44.1Zm-8.4,1.7c-1.8.4-3.6.8-5.3,1.1-2.1-.8-4.2-1.4-6.3-2.2q2.55-.6,5.4-1.2C593.15,44.3,595.15,45.1,597.35,45.8Zm-8.5,1.8c-1.7.3-3.4.7-5.1,1-2-.7-4.1-1.4-6.1-2l5.1-1.2C584.76,46.1,586.86,46.8,588.85,47.6Zm-8.4,1.6c-1.7.3-3.4.7-5.1.9-2-.6-4-1.3-5.9-1.9,1.6-.3,3.3-.7,5-1,2,.6,4,1.3,6,2Zm-8.4,1.6-4.9.9-5.7-1.8c1.6-.4,3.2-.7,4.8-1,1.9.6,3.9,1.2,5.8,1.9Zm-8.4,1.4c-1.6.3-3.2.6-4.8.8-1.9-.5-3.7-1.1-5.5-1.6,1.6-.3,3.1-.6,4.8-.9,1.8.6,3.7,1.2,5.5,1.7Zm-13.19,3.9c1.7.4,3.5.8,5.2,1.3-1.2.1-2.4.3-3.5.4-1.7-.4-3.5-.7-5.2-1.1Zm4.1-.7c1.4-.2,2.8-.4,4.2-.7,1.7.5,3.4,1,5.2,1.5-1.3.2-2.5.4-3.8.5-1.8-.5-3.7-.8-5.6-1.3Zm7.8-1.3c1.6-.3,3.1-.6,4.7-.8,1.7.5,3.5,1.1,5.3,1.6-1.4.2-2.7.4-4.2.6-1.9-.5-3.9-.8-5.8-1.4Zm5.7,3.1c1.7.4,3.4.8,5.1,1.3-1.3.2-2.5.3-3.7.4l-4.9-1.2c1.1-.2,2.3-.4,3.5-.5Zm4.2-.6,3.9-.6c1.8.5,3.6.9,5.4,1.4-1.4.2-2.6.4-4,.5-1.8-.4-3.5-.9-5.3-1.3Zm5.2,2.9c1.6.3,3.1.8,4.6,1.1l-3.3.3c-1.6-.3-3.2-.7-4.8-1,1.2-.1,2.3-.2,3.5-.4Zm4.3-.6c1.2-.2,2.5-.3,3.7-.6,1.7.5,3.4.9,5.1,1.4-1.2.1-2.5.3-3.7.4-1.7-.3-3.4-.8-5.1-1.2Zm7.8-1.1,4.1-.6c1.8.6,3.6,1,5.4,1.5-1.4.2-2.7.3-4.1.5-1.8-.4-3.6-.9-5.4-1.4Zm5.4,3.1,4.8,1.2a21.14,21.14,0,0,1-2.4.2c-1.8-.3-3.6-.7-5.4-1.1Zm4.5-.5c1.2-.2,2.4-.3,3.7-.4,1.7.4,3.3.9,5,1.3l-3.1.3c-1.9-.5-3.8-.8-5.6-1.2Zm7.7-1c1.4-.2,2.8-.4,4.1-.5,1.8.5,3.7,1.1,5.5,1.6-1.3.2-2.6.3-3.9.4-1.8-.6-3.8-1-5.7-1.5Zm5.8,3.1,4.8,1.2a22.73,22.73,0,0,1-2.6.2c-1.7-.3-3.3-.7-4.9-1a11.71,11.71,0,0,1,2.7-.4Zm4.7-.5c1-.1,2-.3,3.1-.4,1.7.5,3.6.9,5.4,1.4-1.1.1-2.1.2-3.2.2a45.34,45.34,0,0,0-5.3-1.2Zm7.6-.9c1.3-.2,2.5-.3,3.7-.5l5.5,1.5c-1.2.2-2.4.3-3.4.4-2-.5-3.9-.9-5.8-1.4Zm5.6,3.1c1.7.4,3.3.9,5,1.3-1,.1-1.9.1-2.8.2l-5.1-1.2a15,15,0,0,1,2.9-.3Zm4.7-.5,3.2-.3,5.5,1.5-3.1.3Zm7.6-.8c1.2-.2,2.4-.3,3.7-.4,1.9.5,3.7,1.1,5.6,1.6l-3.6.3Zm7.8-.9c1.3-.1,2.6-.3,3.9-.5,2,.7,4,1.3,6,1.9-1.4.2-2.7.3-4,.4-2-.6-4-1.2-5.9-1.8Zm5.6,3.3c1.8.5,3.6,1,5.4,1.6-1.1.1-2.2.2-3.4.2a21.7,21.7,0,0,1-2.4-.7c-1-.2-1.9-.6-2.8-.8Zm4.2-.4c1.2-.2,2.4-.3,3.7-.4,2,.6,3.9,1.2,5.9,1.8l-3.7.3c-2-.6-3.9-1.2-5.9-1.7Zm7.7-.8c1.4-.2,2.7-.3,4.1-.4,2,.7,4,1.3,6,2-1.3.1-2.6.3-3.9.4-2-.7-4.1-1.4-6.2-2Zm5.8,3.4c1,.3,1.8.6,2.8.9.8.3,1.6.5,2.4.8l-3.8.3c-1.6-.5-3.2-1-4.9-1.5,1.2-.2,2.4-.4,3.5-.5Zm4.1-.4c1.3-.1,2.5-.2,3.8-.4,1.9.6,3.7,1.3,5.6,1.9.1.1.1.1.2.1l-4,.3c-1.8-.6-3.7-1.2-5.6-1.9Zm7.8-.7c1.4-.1,2.8-.2,4.2-.4,1.9.7,3.8,1.3,5.7,2-1.4.2-2.7.3-4.1.4-1.2-.4-2.3-.8-3.5-1.2a15.54,15.54,0,0,0-2.3-.8Zm13.49,2.9c1.8.7,3.6,1.3,5.4,1.9l-4.1.3c-1.8-.6-3.6-1.2-5.4-1.9Zm9.2,3.2c1.7.7,3.4,1.2,5.1,1.8-1.2.1-2.4.2-3.7.2-1.7-.6-3.5-1.2-5.2-1.8,1.2,0,2.5-.1,3.8-.2Zm4-.3,4.2-.3c1.8.7,3.5,1.3,5.3,2-1.4.1-2.8.1-4.2.2-1.8-.6-3.6-1.3-5.3-1.9Zm4.5-1.8c-2-.8-3.9-1.5-5.9-2.2,1.4-.2,2.9-.4,4.4-.5,1.4.5,2.8,1.2,4.2,1.7a12.19,12.19,0,0,1,1.7.7,30.4,30.4,0,0,0-4.4.3Zm-9.2-3.5c-2.1-.8-4.2-1.5-6.3-2.3,1.5-.2,3.2-.4,4.8-.7,2,.8,4.1,1.6,6.1,2.4-1.6.3-3.1.4-4.6.6Zm-9.5-3.5c-2.2-.8-4.3-1.6-6.5-2.4,1.7-.2,3.4-.5,5.2-.7,2.1.8,4.1,1.6,6.3,2.5-1.6.2-3.3.5-5,.6Zm-9.4-3.5-6.3-2.4c1.7-.3,3.6-.6,5.4-.8,2.1.8,4.1,1.6,6.2,2.5-1.8.2-3.6.5-5.3.7Zm-9.3-3.5c-2.1-.8-4.2-1.6-6.3-2.5,1.8-.3,3.6-.7,5.4-.9,2.1.9,4.3,1.7,6.4,2.5-1.9.3-3.8.6-5.5.9Zm-9.3-3.7c-2.1-.8-4.3-1.6-6.5-2.5,1.8-.3,3.7-.7,5.5-1,2.1.9,4.2,1.8,6.4,2.6-1.8.3-3.6.7-5.4.9Zm-9.3-3.6c-2.1-.9-4.3-1.8-6.4-2.6,2-.4,3.9-.8,5.8-1.2,2.1.9,4.2,1.9,6.3,2.7-1.9.4-3.8.8-5.7,1.1Zm-9-3.7c-2.1-.9-4.3-1.8-6.4-2.7,1.9-.4,4-.8,6-1.3,2.1.9,4.3,1.8,6.4,2.7-2,.5-4,.9-6,1.3Zm-9.1-3.8-6.6-2.7c2-.5,4.1-.9,6.1-1.4,2.2.9,4.4,1.9,6.5,2.9-1.9.4-4,.8-6,1.2Zm-9-3.7c-2.2-1-4.3-1.9-6.5-2.9,2-.5,4-1,6-1.4,2.2.9,4.4,1.9,6.6,2.9-2,.4-4.1.9-6.1,1.4ZM616,31.8c2.2.9,4.4,1.9,6.6,2.8-2,.5-3.9.9-5.9,1.4-2.2-.9-4.3-1.8-6.4-2.7,1.8-.5,3.8-1,5.7-1.5Zm-8.5,2.1c2.2.9,4.3,1.9,6.5,2.7-2,.5-3.9.9-5.8,1.4-2.1-.9-4.3-1.8-6.4-2.7,1.9-.4,3.8-.9,5.7-1.4Zm-8.4,2.1c2.1.9,4.3,1.8,6.4,2.7-1.9.4-3.8.8-5.7,1.3-2.1-.8-4.2-1.6-6.3-2.5C595.25,36.9,597.25,36.5,599.15,36Zm-8.5,2.1c2,.8,4.2,1.7,6.3,2.5-2,.4-3.8.8-5.7,1.3-2-.8-4.1-1.6-6.2-2.5C587,38.9,588.85,38.5,590.65,38.1Zm-8.4,2c2,.8,4.1,1.6,6.1,2.4-1.9.4-3.8.8-5.6,1.3-2-.8-4.1-1.6-6.1-2.4C578.56,40.9,580.46,40.5,582.26,40.1ZM574,42c2,.8,4,1.6,6,2.3l-5.3,1.2c-2-.7-4.1-1.4-6.1-2.2C570.26,42.9,572.06,42.5,574,42Zm-8.4,1.9c2,.8,3.9,1.5,5.9,2.2-1.7.4-3.4.7-5.1,1-2-.7-4.2-1.3-6.2-2A52.24,52.24,0,0,0,565.56,43.9Zm-8.3,2c2,.7,3.9,1.3,5.9,2-1.7.3-3.3.7-4.9,1-2-.6-4.1-1.2-6.1-1.9C553.87,46.6,555.57,46.2,557.27,45.9ZM549,47.7c2,.7,4,1.2,5.9,1.8-1.7.3-3.2.7-4.8.9-2-.5-3.9-1.1-5.8-1.7C545.87,48.4,547.37,48.1,549,47.7Zm-8,1.7c1.9.6,3.8,1.1,5.8,1.7-1.6.3-3.1.5-4.7.8-1.9-.5-3.7-1-5.6-1.6Q538.58,49.85,541,49.4Zm-8,1.7c1.8.5,3.7,1,5.4,1.5-1.5.3-3,.6-4.5.8-1.8-.4-3.6-1-5.4-1.5C530,51.7,531.48,51.4,533,51.1Zm-8,1.6c1.7.5,3.5.9,5.2,1.4-1.5.2-3,.5-4.4.8-1.7-.4-3.4-.9-5.1-1.4C522.18,53.2,523.58,53,525,52.7Zm-22.39,7.9a25.11,25.11,0,0,1-2.7-.4c.7-.1,1.3-.1,1.9-.2.8.1,1.6.3,2.4.4-.5.1-1,.1-1.6.2Zm-.7-2.2c-1.4-.2-2.9-.4-4.3-.7l3.5-.6c1.3.3,2.6.7,3.9.9C504,58.1,503,58.3,501.89,58.4Zm9.5,3.3-1.6-.2c.2,0,.4-.1.6-.1a7.76,7.76,0,0,0,1.6.2Zm-.9-1.8c-1.1-.2-2.2-.3-3.4-.5.9-.1,1.8-.3,2.7-.4,1.1.2,2.4.4,3.5.6Zm-.6-2.6c-1.6-.3-3.2-.7-4.8-.9,1.4-.3,2.7-.5,4.1-.8l4.4,1.2C512.29,57,511.09,57.1,509.89,57.3Zm9.7,3.9c-.9-.1-1.8-.3-2.7-.4l2.2-.3c.9.2,1.8.3,2.7.5C521,61.1,520.28,61.1,519.58,61.2Zm-.5-2.3c-1.4-.2-2.8-.4-4.1-.7a25.1,25.1,0,0,1,2.7-.4c1.4.3,2.8.5,4.2.8Zm-1.4-2.8c-1.6-.3-3.1-.8-4.7-1.2,1.4-.3,2.7-.5,4.1-.8,1.6.4,3.2.8,4.8,1.3-1.4.3-2.8.5-4.2.7Zm8.1.4c1.4.3,2.8.7,4.3,1-1,.2-2,.3-3,.4l-4.8-.9c1.2-.1,2.3-.3,3.5-.5Zm3.2,5.8c-.5-.1-1-.1-1.6-.2a.6.6,0,0,1,.4-.1c.4.1.9.2,1.2.3Zm-1.1-1.8-3.5-.6,2.5-.3c1.2.2,2.4.4,3.6.7A24.61,24.61,0,0,0,527.88,60.5Zm9.4,1.3-3.1-.3c.6-.1,1.2-.1,1.9-.2.8.2,1.6.3,2.4.5A4.82,4.82,0,0,0,537.28,61.8Zm-1.2-2.1c-1.4-.3-2.8-.5-4.2-.8a23.56,23.56,0,0,1,2.8-.4c1.4.3,2.9.5,4.4.8C538.08,59.5,537.08,59.5,536.08,59.7Zm8.9,1.5c-1.2-.2-2.3-.4-3.4-.5l2.5-.3c1.1.2,2.2.5,3.3.7C546.57,61.1,545.77,61.2,545,61.2Zm-.8-2.5-4.8-.9c1-.1,2.1-.3,3.1-.4,1.6.4,3.2.7,4.8,1Zm8.1,3.5a1.27,1.27,0,0,1,.6-.1,20,20,0,0,0,2.4.4A25.32,25.32,0,0,1,552.27,62.2Zm.8-1.7c-1.4-.2-2.6-.5-3.9-.8a28.84,28.84,0,0,0,2.9-.4l4,.9A15.25,15.25,0,0,1,553.07,60.5Zm10.5,1.7c-1.4-.3-2.9-.4-4.3-.7a11,11,0,0,1,1.8-.2c1.2.2,2.3.6,3.5.8C564.26,62.1,563.87,62.2,563.57,62.2Zm-2.3-2.4c-1.5-.3-3-.7-4.5-1,1.1-.2,2.2-.3,3.4-.4,1.5.4,3,.7,4.5,1C563.47,59.5,562.37,59.7,561.27,59.8Zm4.9,1a29.6,29.6,0,0,1,3.1-.3c1.3.3,2.7.6,4.1.9-.8.1-1.5.1-2.3.2C569.36,61.3,567.66,61.1,566.16,60.8Zm8,3c-1.2-.2-2.4-.4-3.7-.5h.4c1.1.2,2.3.4,3.4.5Zm7.4-.5c-1.3-.2-2.6-.4-3.9-.7.4,0,.8-.1,1.2-.1,1.3.3,2.6.4,3.8.7a3.75,3.75,0,0,1-1.1.1Zm3-1.3a12.3,12.3,0,0,0,2-.2c1.5.3,3.1.6,4.7.9-.7.1-1.3.1-2,.2-1.5-.3-3.1-.6-4.7-.9Zm7.3,3h-.2c-1-.2-2-.3-2.9-.5l.6-.1c1,.2,2,.3,2.9.5-.1.1-.2.1-.4.1Zm5.5-1.1c1.1.2,2.4.5,3.5.7a6.14,6.14,0,0,1-1.4.1c-1.2-.2-2.4-.4-3.7-.7a9.14,9.14,0,0,0,1.6-.1Zm3.8,2.8a15.51,15.51,0,0,1-2.1-.4h.6c.8.1,1.5.3,2.2.4Zm1.7-3.3c.7-.1,1.4-.1,2.1-.2,1.5.3,3.1.7,4.6,1a13.39,13.39,0,0,1-2,.1c-1.6-.2-3.2-.6-4.7-.9Zm5.6,4.7h0c.5.1.9.2,1.3.3-.5-.1-.9-.2-1.3-.3Zm.5-1.5c-1-.3-1.9-.4-2.9-.7a4.48,4.48,0,0,0,1.1-.1c1.1.2,2.1.4,3.2.7a6.15,6.15,0,0,1-1.4.1Zm8.9,1.8c-.7-.1-1.4-.3-2.1-.4h1.2a17.65,17.65,0,0,0,2,.4Zm-.6-2-3.8-.9a9.69,9.69,0,0,1,1.7-.1c1.4.3,2.8.7,4.2.9a14.07,14.07,0,0,1-2.1.1Zm5.7-1.6c1.5.4,3,.7,4.5,1-.7.1-1.5.1-2.2.2l-1.3-.3c-1.1-.2-2.2-.5-3.3-.7.8-.1,1.5-.1,2.3-.2Zm3.4,5.3a2.77,2.77,0,0,0-.9-.1h.3c.3,0,.5.1.7.1Zm-.2-1.7-2.7-.6c.6-.1,1.1-.1,1.7-.2,1,.3,2,.5,3,.8Zm8.4,1.9a17.65,17.65,0,0,0-2-.4c.5,0,.9-.1,1.3-.1.7.2,1.4.3,2.1.5Zm-.1-2.1c-1.3-.3-2.6-.6-4-.9.7-.1,1.5-.1,2.3-.2a5.73,5.73,0,0,1,1.4.4,25,25,0,0,1,2.6.7Zm8.9,2.2c-1-.2-2-.4-3.1-.7.7-.1,1.4,0,2.1-.1a24.52,24.52,0,0,1,2.9.8Zm-1-2.4c-1.5-.4-2.9-.8-4.5-1.2.9-.1,1.8-.1,2.7-.2,1.4.3,2.8.7,4.3,1,.1.1.3.1.4.2-.9.1-1.9.1-2.9.2Zm6.4-1.9c1.7.4,3.4.9,5.1,1.4-1.1.1-2.2.1-3.2.2-1.7-.4-3.3-.9-4.9-1.4,1-.1,2-.2,3-.2Zm3.3,6.2c-.8-.2-1.5-.3-2.3-.5H651c.7.2,1.4.3,2.1.5a4,4,0,0,1-1.1,0Zm-.7-2-3.6-.9a21,21,0,0,0,2.5-.2c1.2.4,2.4.7,3.7,1-.9,0-1.8.1-2.6.1Zm8.6,2.2c-1-.2-1.9-.5-2.9-.7a17,17,0,0,1,2.3-.1c.9.3,1.8.5,2.7.8Zm-.3-2.4c-1.4-.4-2.9-.8-4.4-1.2,1-.1,2-.1,3-.2,1.6.4,3.1.8,4.6,1.3-1.1.1-2.1.1-3.2.1Zm6.8-1.9c1.5.5,3.1.9,4.6,1.4-1.1.1-2.2.1-3.2.2-1.7-.4-3.2-.9-4.9-1.4,1.2-.1,2.4-.1,3.5-.2Zm2.8,6.4a18.91,18.91,0,0,0-2.3-.5h1a19.43,19.43,0,0,0,2,.5Zm-1-2.1c-1-.3-2.2-.6-3.3-.9.9-.1,1.7-.1,2.6-.2,1.2.4,2.4.7,3.6,1a27.13,27.13,0,0,1-2.9.1Zm9.8,4.1c-.3-.1-.7-.2-1.1-.3h.1C677.32,76.4,677.72,76.5,678,76.6Zm-.7-1.9c-.9-.2-1.8-.4-2.8-.7h2c.8.2,1.7.5,2.6.7a5.44,5.44,0,0,1-1.8,0Zm-.5-2.2c-1.4-.4-3-.9-4.4-1.3,1-.1,2-.1,3-.2,1.4.5,2.9.9,4.3,1.4a27.13,27.13,0,0,0-2.9.1Zm6.8-1.9c1.5.5,3,1,4.5,1.4-1.2.1-2.4.1-3.5.2-1.6-.5-3.1-.9-4.7-1.4,1.3-.1,2.5-.2,3.7-.2Zm2.5,6.3c-.6-.1-1.1-.3-1.7-.4h1a8.44,8.44,0,0,1,1.7.5c-.3,0-.6-.1-1-.1Zm-.4-2c-1.4-.3-2.7-.7-4.1-1.1.9,0,1.8-.1,2.7-.1l3.9,1.2Zm9,4.1c-.2,0-.4-.1-.7-.1h.3A1,1,0,0,1,694.71,79Zm-.1-1.7c-1-.2-2-.5-3-.8.6,0,1.2-.1,1.7-.1,1,.3,2,.6,3.1.9Zm-1-2.4c-1.4-.4-2.8-.9-4.2-1.3,1.1,0,2.1,0,3.2-.1,1.4.4,2.8.9,4.2,1.3-1.1.1-2.2.1-3.2.1Zm-.7-3c-1.7-.6-3.3-1-5-1.6l3.7-.3c1.7.6,3.5,1.2,5.2,1.8-1.3,0-2.6.1-3.9.1ZM703,79.5c-.5-.2-1.1-.3-1.7-.5a3.35,3.35,0,0,0,1,0c.6.2,1.2.3,1.7.5Zm-.4-2c-1.2-.3-2.5-.7-3.8-1,1,0,1.8-.1,2.7-.1,1.2.4,2.4.8,3.7,1.2a22.59,22.59,0,0,0-2.6-.1Zm-.8-2.8c-1.5-.4-3-.9-4.5-1.4l3.4-.3c1.6.6,3.1,1.1,4.7,1.6-1.1.1-2.4.1-3.6.1Zm9.8,5.3-3.3-.9h2.1c1,.3,2,.6,3.1.9Zm-.8-2.5c-1.4-.4-2.7-.9-4.1-1.3,1,0,2.1-.1,3.1-.1,1.3.4,2.7.9,4.1,1.4Zm9.5,4.9a21.7,21.7,0,0,1-2.4-.7c.4,0,.9.1,1.4.1.8.2,1.6.5,2.4.7-.4,0-.9-.1-1.4-.1Zm-.7-2.2c-1.2-.4-2.4-.7-3.6-1.1h2.9c1.1.4,2.3.8,3.4,1.2-.9,0-1.8-.1-2.7-.1Zm-.4-2.7c-1.7-.5-3.3-1-5-1.6,1.2-.1,2.4-.1,3.5-.2,1.6.5,3.2,1.2,4.8,1.7-1.1.1-2.2.1-3.3.1Zm2.8-2c1.4-.1,2.7-.2,4-.2,1.6.6,3.3,1.2,5,1.9-1.3,0-2.6.1-3.8.1-1.8-.6-3.5-1.2-5.2-1.8Zm7.1,9.2-1.3-.3h.3A2.94,2.94,0,0,1,729.1,84.7Zm-.7-1.9c-1-.3-2-.6-3-.8h2.2c1,.3,1.9.6,2.9.9a14.76,14.76,0,0,0-2.1-.1Zm-.4-2.4c-1.4-.5-2.9-.9-4.3-1.4,1,0,2.1-.1,3.1-.1,1.6.5,3.1,1,4.6,1.5Zm9.6,5c-.8-.2-1.7-.5-2.5-.7.5,0,.9.1,1.3.1.8.2,1.6.5,2.3.7a4.1,4.1,0,0,0-1.1-.1Zm-.8-2.3c-1.2-.3-2.4-.7-3.6-1.1.9,0,1.8-.1,2.7-.1,1.3.4,2.6.9,3.8,1.3a27.13,27.13,0,0,1-2.9-.1Zm-.6-2.7c-1.6-.6-3.2-1.1-4.8-1.6,1.2,0,2.4-.1,3.6-.1,1.6.6,3.2,1.1,4.8,1.7-1.3-.1-2.5,0-3.6,0Zm9,7.1h0a2.54,2.54,0,0,0,.7.2,1.45,1.45,0,0,0-.7-.2Zm.6-1.6c-1-.3-2-.6-3.1-.9a13.34,13.34,0,0,1,2,0c1.1.4,2.1.7,3.2,1a14.07,14.07,0,0,1-2.1-.1Zm-.8-2.5c-1.4-.4-2.9-1-4.4-1.5,1.1-.1,2.3-.1,3.4-.1,1.5.5,2.9,1,4.4,1.5-1.2.1-2.3.1-3.4.1Zm9.4,5c-.7-.2-1.3-.3-1.9-.5.5,0,1,.1,1.4.1.7.2,1.3.4,1.9.6-.5-.1-.9-.1-1.4-.2Zm-.1-2c-1.4-.4-2.8-.9-4.3-1.3h2.8c1.4.4,2.7.9,4,1.4a20.88,20.88,0,0,0-2.5-.1Zm-5.7-4.6c1.2-.1,2.4-.1,3.6-.1,1.5.6,3.1,1.2,4.6,1.7-1.2.1-2.4,0-3.6,0-1.5-.5-3.1-1.1-4.6-1.6Zm14,9a1,1,0,0,1-.3-.1c.1,0,.2.1.3.1h0Zm8.6.9a17.22,17.22,0,0,1-2.1-.7c.6,0,1.1.1,1.7.1.7.2,1.4.5,2.2.7a5.46,5.46,0,0,1-1.8-.1Zm-.1-2.2c-1.3-.4-2.6-.8-3.9-1.3.9,0,1.8.1,2.7.1,1.3.5,2.5.9,3.8,1.4a11.83,11.83,0,0,1-2.6-.2Zm8.9,4.8c-.3-.1-.6-.2-1-.3h.3a3.81,3.81,0,0,0,1,.3c0,.1-.2,0-.3,0Zm-.4-1.8c-1-.3-2.1-.7-3.1-1,.7,0,1.5.1,2.2.1,1,.3,2,.7,3,1a14.07,14.07,0,0,0-2.1-.1Zm9.3,2.9a22.93,22.93,0,0,1-2.8-.9,5.7,5.7,0,0,0,1.3.1,24.11,24.11,0,0,0,2.5.8Zm-2-3.7c1.3.5,2.6,1,3.8,1.5-1-.1-2.1-.2-3.1-.2-1.2-.4-2.4-.8-3.6-1.3ZM778,88.3c1.6.6,3.1,1.2,4.7,1.8-1.2,0-2.4-.1-3.5-.1-1.4-.5-2.9-1-4.4-1.6,1.1-.1,2.1-.1,3.2-.1Zm-9-3.5c1.6.7,3.4,1.4,5,2h-3.7c-1.6-.6-3.3-1.2-4.9-1.8,1.2-.1,2.4-.2,3.6-.2Zm-6,4.4c-1.1-.3-2.3-.7-3.4-1h2.3l3.6,1.2a22.84,22.84,0,0,0-2.5-.2Zm-.8-2.6-4.5-1.5h3.4c1.4.5,2.9,1,4.3,1.6-1.1-.1-2.1-.1-3.2-.1Zm3.1-3.3c-1.2,0-2.5.1-3.8.1-1.7-.7-3.5-1.3-5.3-2,1.3-.1,2.6-.1,3.9-.2,1.7.8,3.4,1.4,5.2,2.1Zm-8.8-3.4c-1.3.1-2.7.2-4,.2-1.8-.7-3.7-1.4-5.6-2.1l4.1-.3c1.8.7,3.6,1.4,5.5,2.2Zm-8.9-3.6-4.2.3c-1.9-.8-3.8-1.5-5.8-2.2,1.4-.1,2.8-.3,4.3-.4,1.9.8,3.9,1.6,5.7,2.3Zm-14.79-5.9c2,.8,3.9,1.6,5.8,2.4-1.5.1-2.9.3-4.4.4-1.9-.7-3.9-1.5-5.9-2.3,1.5-.2,3-.4,4.5-.5Zm-3.2-1.3c-1.5.2-3,.3-4.5.4-1.4-.5-2.9-1.1-4.4-1.7-.5-.2-1.1-.4-1.6-.6,1.5-.2,3.1-.3,4.6-.5,2,.8,3.9,1.6,5.9,2.4Zm-8.9-3.7L716,66c-2-.8-4.1-1.6-6.1-2.5,1.6-.2,3.1-.3,4.7-.6C716.6,63.8,718.6,64.6,720.7,65.4Zm-9.1-3.7-4.7.6c-2.1-.8-4.2-1.6-6.3-2.5,1.6-.2,3.2-.4,4.8-.7C707.51,60,709.5,60.9,711.6,61.7Zm-9-3.7c-1.7.3-3.3.5-4.9.7-2.1-.8-4.2-1.6-6.3-2.5,1.7-.3,3.3-.6,5-.8C698.41,56.2,700.51,57.1,702.61,58Zm-9.1-3.9-5.1.9c-2.1-.9-4.3-1.7-6.4-2.6,1.7-.3,3.5-.6,5.3-.9,2.1.8,4.2,1.7,6.2,2.6Zm-8.9-3.8-5.5.9c-2.2-.9-4.4-1.7-6.6-2.6,1.9-.4,3.7-.7,5.7-1C680.32,48.4,682.42,49.4,684.61,50.3Zm-15.49-6.7c2.2.9,4.3,1.9,6.5,2.8-2,.4-3.8.7-5.7,1.1-2.1-.9-4.2-1.9-6.4-2.7,1.8-.4,3.5-.7,5.3-1.1A1,1,0,0,0,669.12,43.6Zm-8.9-4c2.1,1,4.3,1.9,6.4,2.9L661,43.7c-2.2-.9-4.3-1.9-6.5-2.8l4.1-.9A12.43,12.43,0,0,0,660.22,39.6Zm-2.6-1L652,39.8c-2.2-.9-4.4-1.9-6.6-2.9a28.62,28.62,0,0,0,2.8-.7,28.62,28.62,0,0,0,2.8-.7C653.33,36.6,655.53,37.5,657.63,38.6Zm-8.9-4.1c-.3.1-.6.1-.9.2-1.7.4-3.2.8-4.8,1.1-2.2-.9-4.4-1.9-6.6-2.9a12.43,12.43,0,0,0,1.6-.4c1.4-.3,2.7-.7,4.2-1C644.33,32.5,646.53,33.5,648.73,34.5Zm-8.9-4.1-2.3.6-3.6.9c-2.2-1-4.5-1.9-6.7-2.9a.76.76,0,0,1,.4-.1c1.9-.5,3.7-1,5.5-1.4C635.34,28.4,637.53,29.4,639.83,30.4ZM10.2-122c-3.4,3.2-6.8,6.5-10.2,10v2.4c4.1-4.3,8.3-8.5,12.49-12.4Zm16.49,0A334.33,334.33,0,0,0,0-95.4v2.6A335.74,335.74,0,0,1,29.29-122Z" style="fill:#fff;opacity:0.4000000059604645;isolation:isolate"/><image width="202" height="74" transform="translate(43 42.5)" xlink:href="A4B8EE01.png" style="opacity:0.75;isolation:isolate"/><path d="M56,89.3V55.7H68.2a13.78,13.78,0,0,1,5.7.9,7.49,7.49,0,0,1,3,3.1,10.67,10.67,0,0,1,1.2,5.1,9.61,9.61,0,0,1-2,6.2,8.82,8.82,0,0,1-5.8,3,7.53,7.53,0,0,1,2.3,1.9,26.93,26.93,0,0,1,2.9,4.3l4.8,9.2H75.7l-3.7-7a42.75,42.75,0,0,0-3.2-5.5A6,6,0,0,0,66.7,75a7.2,7.2,0,0,0-2.9-.5H59.6V89.4H56Zm3.6-18.8h7.8a10,10,0,0,0,3.9-.6,4.51,4.51,0,0,0,2.1-2,6.21,6.21,0,0,0,.8-3.1,5.35,5.35,0,0,0-1.5-4,6,6,0,0,0-4.4-1.5H59.6Z" style="fill:#fff"/><path d="M83.8,89.3V55.7H94.2a17.75,17.75,0,0,1,5.4.6,7.43,7.43,0,0,1,3.8,3.2,11.58,11.58,0,0,1,1.4,5.8,11.67,11.67,0,0,1-2.3,7.4c-1.5,1.9-4.2,2.9-8,2.9H87.4V89.3Zm3.7-17.6h7.1c2.2,0,3.9-.5,4.9-1.5a6.4,6.4,0,0,0,1.6-4.6,7.12,7.12,0,0,0-.8-3.4,4.61,4.61,0,0,0-1.9-2,9.05,9.05,0,0,0-3.9-.5H87.4v12Z" style="fill:#fff"/><path d="M132.1,89.3V86.2a6.36,6.36,0,0,1-2.4,2.7,5.86,5.86,0,0,1-3.1.9,7.48,7.48,0,0,1-6.1-3.3c-1.7-2.2-2.6-5.4-2.6-9.4a20.16,20.16,0,0,1,1.1-7,9.59,9.59,0,0,1,3.1-4.3,7.36,7.36,0,0,1,4.3-1.4,5.86,5.86,0,0,1,3.1.9,7.21,7.21,0,0,1,2.4,2.5V55.7h3.4V89.3ZM121.3,77.1c0,3.2.5,5.5,1.6,7a4.81,4.81,0,0,0,3.8,2.3,4.4,4.4,0,0,0,3.7-2.2c1.1-1.5,1.6-3.7,1.6-6.7,0-3.4-.5-5.9-1.6-7.5a4.74,4.74,0,0,0-4-2.4c-1.4,0-2.6.8-3.7,2.3A15,15,0,0,0,121.3,77.1Z" style="fill:#1d1d1b"/><path d="M154.2,81.5l3.5.5a10.25,10.25,0,0,1-3.2,5.9,8.42,8.42,0,0,1-5.7,2,8.73,8.73,0,0,1-6.9-3.2c-1.8-2.1-2.6-5.3-2.6-9.3q0-6.3,2.7-9.6a8.28,8.28,0,0,1,6.7-3.3,8.05,8.05,0,0,1,6.5,3.3c1.7,2.2,2.6,5.3,2.6,9.4v1.1H142.9a10.61,10.61,0,0,0,1.9,6.2,5.07,5.07,0,0,0,4.1,2.1C151.4,86.5,153.2,84.8,154.2,81.5Zm-11.1-6.7h11.2a9,9,0,0,0-1.4-4.7,5.06,5.06,0,0,0-4.2-2.3,4.91,4.91,0,0,0-3.9,1.9,8.39,8.39,0,0,0-1.7,5.1Z" style="fill:#1d1d1b"/><path d="M160.7,82l3.4-.6a5.83,5.83,0,0,0,1.6,3.8,5.2,5.2,0,0,0,3.5,1.3,5.14,5.14,0,0,0,3.4-1.1,3.49,3.49,0,0,0,1.2-2.8,2.46,2.46,0,0,0-1-2.2,13.61,13.61,0,0,0-3.4-1.4,23.53,23.53,0,0,1-5.3-2.1,5.83,5.83,0,0,1-2.1-2.3,6.57,6.57,0,0,1-.7-3.2,6.93,6.93,0,0,1,2-5.1,7.57,7.57,0,0,1,5.5-2,9.35,9.35,0,0,1,3.9.8,6.27,6.27,0,0,1,2.6,2.2,9,9,0,0,1,1.2,3.9l-3.3.6c-.3-2.7-1.8-4-4.3-4a5,5,0,0,0-3.3.9,2.84,2.84,0,0,0-1.1,2.3,2.39,2.39,0,0,0,1,2.1,17.8,17.8,0,0,0,3.7,1.5,29.71,29.71,0,0,1,5.4,2.1,5.1,5.1,0,0,1,1.9,2.2,6.71,6.71,0,0,1,.7,3.3,7.69,7.69,0,0,1-2.2,5.7,8.5,8.5,0,0,1-6,2.2C164.2,89.9,161.4,87.2,160.7,82Z" style="fill:#1d1d1b"/><path d="M181.3,60.4V55.6h3.4v4.8Zm0,28.9V64.9h3.4V89.3Z" style="fill:#1d1d1b"/><path d="M189.2,91.3l3.3.6a4.22,4.22,0,0,0,1.4,2.9,5.09,5.09,0,0,0,3.2,1,5.23,5.23,0,0,0,3.5-1.1,5.33,5.33,0,0,0,1.8-3.2,30.62,30.62,0,0,0,.3-5.4,9.45,9.45,0,0,1-2.5,2.4,5.33,5.33,0,0,1-3.1.8,7.08,7.08,0,0,1-5.9-3q-2.7-3.45-2.7-9.3a18.48,18.48,0,0,1,1.2-6.9,9.07,9.07,0,0,1,3.1-4.3,7.36,7.36,0,0,1,4.3-1.4,5.71,5.71,0,0,1,3.2.9,8,8,0,0,1,2.6,2.6V65H206V86a25.24,25.24,0,0,1-.9,8,7.56,7.56,0,0,1-3,3.8,9.15,9.15,0,0,1-5,1.4,8.12,8.12,0,0,1-6-2.1A7.7,7.7,0,0,1,189.2,91.3ZM192,76.7c0,3.2.5,5.5,1.6,7a4.56,4.56,0,0,0,7.8,0c1.1-1.4,1.6-3.7,1.6-6.9s-.6-5.3-1.7-6.8a4.75,4.75,0,0,0-4-2.2,4.52,4.52,0,0,0-3.7,2.2C192.5,71.5,192,73.7,192,76.7Z" style="fill:#1d1d1b"/><path d="M211.3,89.3V64.9h3.1v3.4a7.89,7.89,0,0,1,2.7-3,6.63,6.63,0,0,1,3.7-1,7.31,7.31,0,0,1,3,.6,6.2,6.2,0,0,1,2.2,1.7,5.6,5.6,0,0,1,1.2,2.7,21.2,21.2,0,0,1,.4,5v15h-3.4V74.5a11.82,11.82,0,0,0-.5-3.9,4,4,0,0,0-1.4-1.9A3.69,3.69,0,0,0,220,68a4.84,4.84,0,0,0-3.9,1.8c-1,1.2-1.4,3.3-1.4,6.2V89.3h-3.4Z" style="fill:#1d1d1b"/></svg>